<?xml version='1.0'?><svg xmlns="http://www.w3.org/2000/svg" viewBox="0 0 240 240" width="240" height="240">
			<rect id="frame-background" fill="#ffffff" x="8" y="8" width="224" height="224" />
			<!-- 
Bitly Generated QR Code
v4
33x33
-->
<svg  x='30.00' y='30.00' width='180.00' height='180.00' viewBox='0 0 528 528'
xmlns='http://www.w3.org/2000/svg'
xmlns:xlink='http://www.w3.org/1999/xlink'>
	<g id='background' style='fill:#ffffff' >
<rect x="0" y="0" width="528" height="528" />
</g>
<g id='pips' style='fill:#000000' >
<path d="M168,0.8L168,0.8A7.2,7.2,0,0,1,175.2,8L175.2,8A7.2,7.2,0,0,1,168,15.2L168,15.2A7.2,7.2,0,0,1,160.8,8L160.8,8A7.2,7.2,0,0,1,168,0.8M232,0.8L232,0.8A7.2,7.2,0,0,1,239.2,8L239.2,8A7.2,7.2,0,0,1,232,15.2L232,15.2A7.2,7.2,0,0,1,224.8,8L224.8,8A7.2,7.2,0,0,1,232,0.8M264,0.8L264,0.8A7.2,7.2,0,0,1,271.2,8L271.2,8A7.2,7.2,0,0,1,264,15.2L264,15.2A7.2,7.2,0,0,1,256.8,8L256.8,8A7.2,7.2,0,0,1,264,0.8M296,0.8L296,0.8A7.2,7.2,0,0,1,303.2,8L303.2,8A7.2,7.2,0,0,1,296,15.2L296,15.2A7.2,7.2,0,0,1,288.8,8L288.8,8A7.2,7.2,0,0,1,296,0.8M328,0.8L328,0.8A7.2,7.2,0,0,1,335.2,8L335.2,8A7.2,7.2,0,0,1,328,15.2L328,15.2A7.2,7.2,0,0,1,320.8,8L320.8,8A7.2,7.2,0,0,1,328,0.8M376,0.8L384,0.8L392,0.8A7.2,7.2,0,0,1,399.2,8L399.2,8A7.2,7.2,0,0,1,392,15.2L384,15.2L376,15.2A7.2,7.2,0,0,1,368.8,8L368.8,8A7.2,7.2,0,0,1,376,0.8ZM152,16.8L152,16.8A7.2,7.2,0,0,1,159.2,24L159.2,24A7.2,7.2,0,0,1,152,31.2L152,31.2A7.2,7.2,0,0,1,144.8,24L144.8,24A7.2,7.2,0,0,1,152,16.8M184,16.8L192,16.8L200,16.8A7.2,7.2,0,0,1,207.2,24L207.2,24A7.2,7.2,0,0,1,200,31.2L192,31.2L184,31.2A7.2,7.2,0,0,1,176.8,24L176.8,24A7.2,7.2,0,0,1,184,16.8M248,16.8L248,16.8A7.2,7.2,0,0,1,255.2,24L255.2,24A7.2,7.2,0,0,1,248,31.2L248,31.2A7.2,7.2,0,0,1,240.8,24L240.8,24A7.2,7.2,0,0,1,248,16.8M296,16.8L304,16.8L320,16.8L336,16.8L352,16.8L368,16.8L376,16.8A7.2,7.2,0,0,1,383.2,24L383.2,24A7.2,7.2,0,0,1,376,31.2L368,31.2L352,31.2L336,31.2L320,31.2L304,31.2L296,31.2A7.2,7.2,0,0,1,288.8,24L288.8,24A7.2,7.2,0,0,1,296,16.8ZM152,32.8L160,32.8L176,32.8L192,32.8L208,32.8L216,32.8A7.2,7.2,0,0,1,223.2,40L223.2,40A7.2,7.2,0,0,1,216,47.2L208,47.2L192,47.2L176,47.2L160,47.2L152,47.2A7.2,7.2,0,0,1,144.8,40L144.8,40A7.2,7.2,0,0,1,152,32.8M312,32.8L312,32.8A7.2,7.2,0,0,1,319.2,40L319.2,40A7.2,7.2,0,0,1,312,47.2L312,47.2A7.2,7.2,0,0,1,304.8,40L304.8,40A7.2,7.2,0,0,1,312,32.8M376,32.8L376,32.8A7.2,7.2,0,0,1,383.2,40L383.2,40A7.2,7.2,0,0,1,376,47.2L376,47.2A7.2,7.2,0,0,1,368.8,40L368.8,40A7.2,7.2,0,0,1,376,32.8ZM152,48.8L152,48.8A7.2,7.2,0,0,1,159.2,56L159.2,56A7.2,7.2,0,0,1,152,63.2L152,63.2A7.2,7.2,0,0,1,144.8,56L144.8,56A7.2,7.2,0,0,1,152,48.8M216,48.8L224,48.8L240,48.8L256,48.8L272,48.8L280,48.8A7.2,7.2,0,0,1,287.2,56L287.2,56A7.2,7.2,0,0,1,280,63.2L272,63.2L256,63.2L240,63.2L224,63.2L216,63.2A7.2,7.2,0,0,1,208.8,56L208.8,56A7.2,7.2,0,0,1,216,48.8M312,48.8L312,48.8A7.2,7.2,0,0,1,319.2,56L319.2,56A7.2,7.2,0,0,1,312,63.2L312,63.2A7.2,7.2,0,0,1,304.8,56L304.8,56A7.2,7.2,0,0,1,312,48.8M360,48.8L368,48.8L384,48.8L392,48.8A7.2,7.2,0,0,1,399.2,56L399.2,56A7.2,7.2,0,0,1,392,63.2L384,63.2L368,63.2L360,63.2A7.2,7.2,0,0,1,352.8,56L352.8,56A7.2,7.2,0,0,1,360,48.8ZM136,64.8L136,64.8A7.2,7.2,0,0,1,143.2,72L143.2,72A7.2,7.2,0,0,1,136,79.2L136,79.2A7.2,7.2,0,0,1,128.8,72L128.8,72A7.2,7.2,0,0,1,136,64.8M168,64.8L176,64.8L184,64.8A7.2,7.2,0,0,1,191.2,72L191.2,72A7.2,7.2,0,0,1,184,79.2L176,79.2L168,79.2A7.2,7.2,0,0,1,160.8,72L160.8,72A7.2,7.2,0,0,1,168,64.8M232,64.8L232,64.8A7.2,7.2,0,0,1,239.2,72L239.2,72A7.2,7.2,0,0,1,232,79.2L232,79.2A7.2,7.2,0,0,1,224.8,72L224.8,72A7.2,7.2,0,0,1,232,64.8M264,64.8L264,64.8A7.2,7.2,0,0,1,271.2,72L271.2,72A7.2,7.2,0,0,1,264,79.2L264,79.2A7.2,7.2,0,0,1,256.8,72L256.8,72A7.2,7.2,0,0,1,264,64.8M296,64.8L304,64.8L320,64.8L328,64.8A7.2,7.2,0,0,1,335.2,72L335.2,72A7.2,7.2,0,0,1,328,79.2L320,79.2L304,79.2L296,79.2A7.2,7.2,0,0,1,288.8,72L288.8,72A7.2,7.2,0,0,1,296,64.8M376,64.8L384,64.8L392,64.8A7.2,7.2,0,0,1,399.2,72L399.2,72A7.2,7.2,0,0,1,392,79.2L384,79.2L376,79.2A7.2,7.2,0,0,1,368.8,72L368.8,72A7.2,7.2,0,0,1,376,64.8ZM152,80.8L152,80.8A7.2,7.2,0,0,1,159.2,88L159.2,88A7.2,7.2,0,0,1,152,95.2L152,95.2A7.2,7.2,0,0,1,144.8,88L144.8,88A7.2,7.2,0,0,1,152,80.8M184,80.8L184,80.8A7.2,7.2,0,0,1,191.2,88L191.2,88A7.2,7.2,0,0,1,184,95.2L184,95.2A7.2,7.2,0,0,1,176.8,88L176.8,88A7.2,7.2,0,0,1,184,80.8M216,80.8L224,80.8L232,80.8A7.2,7.2,0,0,1,239.2,88L239.2,88A7.2,7.2,0,0,1,232,95.2L224,95.2L216,95.2A7.2,7.2,0,0,1,208.8,88L208.8,88A7.2,7.2,0,0,1,216,80.8M280,80.8L288,80.8L296,80.8A7.2,7.2,0,0,1,303.2,88L303.2,88A7.2,7.2,0,0,1,296,95.2L288,95.2L280,95.2A7.2,7.2,0,0,1,272.8,88L272.8,88A7.2,7.2,0,0,1,280,80.8M376,80.8L376,80.8A7.2,7.2,0,0,1,383.2,88L383.2,88A7.2,7.2,0,0,1,376,95.2L376,95.2A7.2,7.2,0,0,1,368.8,88L368.8,88A7.2,7.2,0,0,1,376,80.8ZM136,96.8L136,96.8A7.2,7.2,0,0,1,143.2,104L143.2,104A7.2,7.2,0,0,1,136,111.2L136,111.2A7.2,7.2,0,0,1,128.8,104L128.8,104A7.2,7.2,0,0,1,136,96.8M168,96.8L168,96.8A7.2,7.2,0,0,1,175.2,104L175.2,104A7.2,7.2,0,0,1,168,111.2L168,111.2A7.2,7.2,0,0,1,160.8,104L160.8,104A7.2,7.2,0,0,1,168,96.8M200,96.8L200,96.8A7.2,7.2,0,0,1,207.2,104L207.2,104A7.2,7.2,0,0,1,200,111.2L200,111.2A7.2,7.2,0,0,1,192.8,104L192.8,104A7.2,7.2,0,0,1,200,96.8M232,96.8L232,96.8A7.2,7.2,0,0,1,239.2,104L239.2,104A7.2,7.2,0,0,1,232,111.2L232,111.2A7.2,7.2,0,0,1,224.8,104L224.8,104A7.2,7.2,0,0,1,232,96.8M264,96.8L264,96.8A7.2,7.2,0,0,1,271.2,104L271.2,104A7.2,7.2,0,0,1,264,111.2L264,111.2A7.2,7.2,0,0,1,256.8,104L256.8,104A7.2,7.2,0,0,1,264,96.8M296,96.8L296,96.8A7.2,7.2,0,0,1,303.2,104L303.2,104A7.2,7.2,0,0,1,296,111.2L296,111.2A7.2,7.2,0,0,1,288.8,104L288.8,104A7.2,7.2,0,0,1,296,96.8M328,96.8L328,96.8A7.2,7.2,0,0,1,335.2,104L335.2,104A7.2,7.2,0,0,1,328,111.2L328,111.2A7.2,7.2,0,0,1,320.8,104L320.8,104A7.2,7.2,0,0,1,328,96.8M360,96.8L360,96.8A7.2,7.2,0,0,1,367.2,104L367.2,104A7.2,7.2,0,0,1,360,111.2L360,111.2A7.2,7.2,0,0,1,352.8,104L352.8,104A7.2,7.2,0,0,1,360,96.8M392,96.8L392,96.8A7.2,7.2,0,0,1,399.2,104L399.2,104A7.2,7.2,0,0,1,392,111.2L392,111.2A7.2,7.2,0,0,1,384.8,104L384.8,104A7.2,7.2,0,0,1,392,96.8ZM136,112.8L136,112.8A7.2,7.2,0,0,1,143.2,120L143.2,120A7.2,7.2,0,0,1,136,127.2L136,127.2A7.2,7.2,0,0,1,128.8,120L128.8,120A7.2,7.2,0,0,1,136,112.8M216,112.8L224,112.8L232,112.8A7.2,7.2,0,0,1,239.2,120L239.2,120A7.2,7.2,0,0,1,232,127.2L224,127.2L216,127.2A7.2,7.2,0,0,1,208.8,120L208.8,120A7.2,7.2,0,0,1,216,112.8M264,112.8L272,112.8L288,112.8L296,112.8A7.2,7.2,0,0,1,303.2,120L303.2,120A7.2,7.2,0,0,1,296,127.2L288,127.2L272,127.2L264,127.2A7.2,7.2,0,0,1,256.8,120L256.8,120A7.2,7.2,0,0,1,264,112.8M360,112.8L360,112.8A7.2,7.2,0,0,1,367.2,120L367.2,120A7.2,7.2,0,0,1,360,127.2L360,127.2A7.2,7.2,0,0,1,352.8,120L352.8,120A7.2,7.2,0,0,1,360,112.8M392,112.8L392,112.8A7.2,7.2,0,0,1,399.2,120L399.2,120A7.2,7.2,0,0,1,392,127.2L392,127.2A7.2,7.2,0,0,1,384.8,120L384.8,120A7.2,7.2,0,0,1,392,112.8ZM40,128.8L48,128.8L56,128.8A7.2,7.2,0,0,1,63.2,136L63.2,136A7.2,7.2,0,0,1,56,143.2L48,143.2L40,143.2A7.2,7.2,0,0,1,32.8,136L32.8,136A7.2,7.2,0,0,1,40,128.8M104,128.8L112,128.8L128,128.8L144,128.8L160,128.8L168,128.8A7.2,7.2,0,0,1,175.2,136L175.2,136A7.2,7.2,0,0,1,168,143.2L160,143.2L144,143.2L128,143.2L112,143.2L104,143.2A7.2,7.2,0,0,1,96.8,136L96.8,136A7.2,7.2,0,0,1,104,128.8M200,128.8L208,128.8L216,128.8A7.2,7.2,0,0,1,223.2,136L223.2,136A7.2,7.2,0,0,1,216,143.2L208,143.2L200,143.2A7.2,7.2,0,0,1,192.8,136L192.8,136A7.2,7.2,0,0,1,200,128.8M280,128.8L288,128.8L304,128.8L320,128.8L336,128.8L352,128.8L368,128.8L384,128.8L400,128.8L416,128.8L424,128.8A7.2,7.2,0,0,1,431.2,136L431.2,136A7.2,7.2,0,0,1,424,143.2L416,143.2L400,143.2L384,143.2L368,143.2L352,143.2L336,143.2L320,143.2L304,143.2L288,143.2L280,143.2A7.2,7.2,0,0,1,272.8,136L272.8,136A7.2,7.2,0,0,1,280,128.8M456,128.8L456,128.8A7.2,7.2,0,0,1,463.2,136L463.2,136A7.2,7.2,0,0,1,456,143.2L456,143.2A7.2,7.2,0,0,1,448.8,136L448.8,136A7.2,7.2,0,0,1,456,128.8ZM24,144.8L32,144.8L48,144.8L56,144.8A7.2,7.2,0,0,1,63.2,152L63.2,152A7.2,7.2,0,0,1,56,159.2L48,159.2L32,159.2L24,159.2A7.2,7.2,0,0,1,16.8,152L16.8,152A7.2,7.2,0,0,1,24,144.8M88,144.8L88,144.8A7.2,7.2,0,0,1,95.2,152L95.2,152A7.2,7.2,0,0,1,88,159.2L88,159.2A7.2,7.2,0,0,1,80.8,152L80.8,152A7.2,7.2,0,0,1,88,144.8M168,144.8L176,144.8L184,144.8A7.2,7.2,0,0,1,191.2,152L191.2,152A7.2,7.2,0,0,1,184,159.2L176,159.2L168,159.2A7.2,7.2,0,0,1,160.8,152L160.8,152A7.2,7.2,0,0,1,168,144.8M248,144.8L256,144.8L272,144.8L280,144.8A7.2,7.2,0,0,1,287.2,152L287.2,152A7.2,7.2,0,0,1,280,159.2L272,159.2L256,159.2L248,159.2A7.2,7.2,0,0,1,240.8,152L240.8,152A7.2,7.2,0,0,1,248,144.8M312,144.8L312,144.8A7.2,7.2,0,0,1,319.2,152L319.2,152A7.2,7.2,0,0,1,312,159.2L312,159.2A7.2,7.2,0,0,1,304.8,152L304.8,152A7.2,7.2,0,0,1,312,144.8M344,144.8L352,144.8L368,144.8L376,144.8A7.2,7.2,0,0,1,383.2,152L383.2,152A7.2,7.2,0,0,1,376,159.2L368,159.2L352,159.2L344,159.2A7.2,7.2,0,0,1,336.8,152L336.8,152A7.2,7.2,0,0,1,344,144.8M408,144.8L416,144.8L424,144.8A7.2,7.2,0,0,1,431.2,152L431.2,152A7.2,7.2,0,0,1,424,159.2L416,159.2L408,159.2A7.2,7.2,0,0,1,400.8,152L400.8,152A7.2,7.2,0,0,1,408,144.8M520,144.8L520,144.8A7.2,7.2,0,0,1,527.2,152L527.2,152A7.2,7.2,0,0,1,520,159.2L520,159.2A7.2,7.2,0,0,1,512.8,152L512.8,152A7.2,7.2,0,0,1,520,144.8ZM24,160.8L24,160.8A7.2,7.2,0,0,1,31.2,168L31.2,168A7.2,7.2,0,0,1,24,175.2L24,175.2A7.2,7.2,0,0,1,16.8,168L16.8,168A7.2,7.2,0,0,1,24,160.8M56,160.8L64,160.8L72,160.8A7.2,7.2,0,0,1,79.2,168L79.2,168A7.2,7.2,0,0,1,72,175.2L64,175.2L56,175.2A7.2,7.2,0,0,1,48.8,168L48.8,168A7.2,7.2,0,0,1,56,160.8M104,160.8L104,160.8A7.2,7.2,0,0,1,111.2,168L111.2,168A7.2,7.2,0,0,1,104,175.2L104,175.2A7.2,7.2,0,0,1,96.8,168L96.8,168A7.2,7.2,0,0,1,104,160.8M168,160.8L176,160.8L192,160.8L208,160.8L216,160.8A7.2,7.2,0,0,1,223.2,168L223.2,168A7.2,7.2,0,0,1,216,175.2L208,175.2L192,175.2L176,175.2L168,175.2A7.2,7.2,0,0,1,160.8,168L160.8,168A7.2,7.2,0,0,1,168,160.8M264,160.8L272,160.8L288,160.8L304,160.8L320,160.8L328,160.8A7.2,7.2,0,0,1,335.2,168L335.2,168A7.2,7.2,0,0,1,328,175.2L320,175.2L304,175.2L288,175.2L272,175.2L264,175.2A7.2,7.2,0,0,1,256.8,168L256.8,168A7.2,7.2,0,0,1,264,160.8M376,160.8L376,160.8A7.2,7.2,0,0,1,383.2,168L383.2,168A7.2,7.2,0,0,1,376,175.2L376,175.2A7.2,7.2,0,0,1,368.8,168L368.8,168A7.2,7.2,0,0,1,376,160.8M408,160.8L408,160.8A7.2,7.2,0,0,1,415.2,168L415.2,168A7.2,7.2,0,0,1,408,175.2L408,175.2A7.2,7.2,0,0,1,400.8,168L400.8,168A7.2,7.2,0,0,1,408,160.8M472,160.8L472,160.8A7.2,7.2,0,0,1,479.2,168L479.2,168A7.2,7.2,0,0,1,472,175.2L472,175.2A7.2,7.2,0,0,1,464.8,168L464.8,168A7.2,7.2,0,0,1,472,160.8M504,160.8L512,160.8L520,160.8A7.2,7.2,0,0,1,527.2,168L527.2,168A7.2,7.2,0,0,1,520,175.2L512,175.2L504,175.2A7.2,7.2,0,0,1,496.8,168L496.8,168A7.2,7.2,0,0,1,504,160.8ZM40,176.8L40,176.8A7.2,7.2,0,0,1,47.2,184L47.2,184A7.2,7.2,0,0,1,40,191.2L40,191.2A7.2,7.2,0,0,1,32.8,184L32.8,184A7.2,7.2,0,0,1,40,176.8M88,176.8L88,176.8A7.2,7.2,0,0,1,95.2,184L95.2,184A7.2,7.2,0,0,1,88,191.2L88,191.2A7.2,7.2,0,0,1,80.8,184L80.8,184A7.2,7.2,0,0,1,88,176.8M120,176.8L120,176.8A7.2,7.2,0,0,1,127.2,184L127.2,184A7.2,7.2,0,0,1,120,191.2L120,191.2A7.2,7.2,0,0,1,112.8,184L112.8,184A7.2,7.2,0,0,1,120,176.8M264,176.8L264,176.8A7.2,7.2,0,0,1,271.2,184L271.2,184A7.2,7.2,0,0,1,264,191.2L264,191.2A7.2,7.2,0,0,1,256.8,184L256.8,184A7.2,7.2,0,0,1,264,176.8M408,176.8L416,176.8L432,176.8L448,176.8L456,176.8A7.2,7.2,0,0,1,463.2,184L463.2,184A7.2,7.2,0,0,1,456,191.2L448,191.2L432,191.2L416,191.2L408,191.2A7.2,7.2,0,0,1,400.8,184L400.8,184A7.2,7.2,0,0,1,408,176.8M504,176.8L512,176.8L520,176.8A7.2,7.2,0,0,1,527.2,184L527.2,184A7.2,7.2,0,0,1,520,191.2L512,191.2L504,191.2A7.2,7.2,0,0,1,496.8,184L496.8,184A7.2,7.2,0,0,1,504,176.8ZM8,192.8L8,192.8A7.2,7.2,0,0,1,15.2,200L15.2,200A7.2,7.2,0,0,1,8,207.2L8,207.2A7.2,7.2,0,0,1,0.8,200L0.8,200A7.2,7.2,0,0,1,8,192.8M40,192.8L40,192.8A7.2,7.2,0,0,1,47.2,200L47.2,200A7.2,7.2,0,0,1,40,207.2L40,207.2A7.2,7.2,0,0,1,32.8,200L32.8,200A7.2,7.2,0,0,1,40,192.8M72,192.8L72,192.8A7.2,7.2,0,0,1,79.2,200L79.2,200A7.2,7.2,0,0,1,72,207.2L72,207.2A7.2,7.2,0,0,1,64.8,200L64.8,200A7.2,7.2,0,0,1,72,192.8M104,192.8L104,192.8A7.2,7.2,0,0,1,111.2,200L111.2,200A7.2,7.2,0,0,1,104,207.2L104,207.2A7.2,7.2,0,0,1,96.8,200L96.8,200A7.2,7.2,0,0,1,104,192.8M152,192.8L152,192.8A7.2,7.2,0,0,1,159.2,200L159.2,200A7.2,7.2,0,0,1,152,207.2L152,207.2A7.2,7.2,0,0,1,144.8,200L144.8,200A7.2,7.2,0,0,1,152,192.8M184,192.8L184,192.8A7.2,7.2,0,0,1,191.2,200L191.2,200A7.2,7.2,0,0,1,184,207.2L184,207.2A7.2,7.2,0,0,1,176.8,200L176.8,200A7.2,7.2,0,0,1,184,192.8M216,192.8L224,192.8L240,192.8L248,192.8A7.2,7.2,0,0,1,255.2,200L255.2,200A7.2,7.2,0,0,1,248,207.2L240,207.2L224,207.2L216,207.2A7.2,7.2,0,0,1,208.8,200L208.8,200A7.2,7.2,0,0,1,216,192.8M280,192.8L280,192.8A7.2,7.2,0,0,1,287.2,200L287.2,200A7.2,7.2,0,0,1,280,207.2L280,207.2A7.2,7.2,0,0,1,272.8,200L272.8,200A7.2,7.2,0,0,1,280,192.8M344,192.8L344,192.8A7.2,7.2,0,0,1,351.2,200L351.2,200A7.2,7.2,0,0,1,344,207.2L344,207.2A7.2,7.2,0,0,1,336.8,200L336.8,200A7.2,7.2,0,0,1,344,192.8M392,192.8L400,192.8L408,192.8A7.2,7.2,0,0,1,415.2,200L415.2,200A7.2,7.2,0,0,1,408,207.2L400,207.2L392,207.2A7.2,7.2,0,0,1,384.8,200L384.8,200A7.2,7.2,0,0,1,392,192.8M440,192.8L440,192.8A7.2,7.2,0,0,1,447.2,200L447.2,200A7.2,7.2,0,0,1,440,207.2L440,207.2A7.2,7.2,0,0,1,432.8,200L432.8,200A7.2,7.2,0,0,1,440,192.8ZM24,208.8L32,208.8L48,208.8L56,208.8A7.2,7.2,0,0,1,63.2,216L63.2,216A7.2,7.2,0,0,1,56,223.2L48,223.2L32,223.2L24,223.2A7.2,7.2,0,0,1,16.8,216L16.8,216A7.2,7.2,0,0,1,24,208.8M88,208.8L88,208.8A7.2,7.2,0,0,1,95.2,216L95.2,216A7.2,7.2,0,0,1,88,223.2L88,223.2A7.2,7.2,0,0,1,80.8,216L80.8,216A7.2,7.2,0,0,1,88,208.8M120,208.8L120,208.8A7.2,7.2,0,0,1,127.2,216L127.2,216A7.2,7.2,0,0,1,120,223.2L120,223.2A7.2,7.2,0,0,1,112.8,216L112.8,216A7.2,7.2,0,0,1,120,208.8M168,208.8L168,208.8A7.2,7.2,0,0,1,175.2,216L175.2,216A7.2,7.2,0,0,1,168,223.2L168,223.2A7.2,7.2,0,0,1,160.8,216L160.8,216A7.2,7.2,0,0,1,168,208.8M200,208.8L208,208.8L224,208.8L240,208.8L256,208.8L264,208.8A7.2,7.2,0,0,1,271.2,216L271.2,216A7.2,7.2,0,0,1,264,223.2L256,223.2L240,223.2L224,223.2L208,223.2L200,223.2A7.2,7.2,0,0,1,192.8,216L192.8,216A7.2,7.2,0,0,1,200,208.8M312,208.8L312,208.8A7.2,7.2,0,0,1,319.2,216L319.2,216A7.2,7.2,0,0,1,312,223.2L312,223.2A7.2,7.2,0,0,1,304.8,216L304.8,216A7.2,7.2,0,0,1,312,208.8M344,208.8L352,208.8L360,208.8A7.2,7.2,0,0,1,367.2,216L367.2,216A7.2,7.2,0,0,1,360,223.2L352,223.2L344,223.2A7.2,7.2,0,0,1,336.8,216L336.8,216A7.2,7.2,0,0,1,344,208.8M488,208.8L488,208.8A7.2,7.2,0,0,1,495.2,216L495.2,216A7.2,7.2,0,0,1,488,223.2L488,223.2A7.2,7.2,0,0,1,480.8,216L480.8,216A7.2,7.2,0,0,1,488,208.8ZM8,224.8L16,224.8L24,224.8A7.2,7.2,0,0,1,31.2,232L31.2,232A7.2,7.2,0,0,1,24,239.2L16,239.2L8,239.2A7.2,7.2,0,0,1,0.8,232L0.8,232A7.2,7.2,0,0,1,8,224.8M56,224.8L56,224.8A7.2,7.2,0,0,1,63.2,232L63.2,232A7.2,7.2,0,0,1,56,239.2L56,239.2A7.2,7.2,0,0,1,48.8,232L48.8,232A7.2,7.2,0,0,1,56,224.8M88,224.8L96,224.8L104,224.8A7.2,7.2,0,0,1,111.2,232L111.2,232A7.2,7.2,0,0,1,104,239.2L96,239.2L88,239.2A7.2,7.2,0,0,1,80.8,232L80.8,232A7.2,7.2,0,0,1,88,224.8M152,224.8L152,224.8A7.2,7.2,0,0,1,159.2,232L159.2,232A7.2,7.2,0,0,1,152,239.2L152,239.2A7.2,7.2,0,0,1,144.8,232L144.8,232A7.2,7.2,0,0,1,152,224.8M184,224.8L184,224.8A7.2,7.2,0,0,1,191.2,232L191.2,232A7.2,7.2,0,0,1,184,239.2L184,239.2A7.2,7.2,0,0,1,176.8,232L176.8,232A7.2,7.2,0,0,1,184,224.8M248,224.8L256,224.8L264,224.8A7.2,7.2,0,0,1,271.2,232L271.2,232A7.2,7.2,0,0,1,264,239.2L256,239.2L248,239.2A7.2,7.2,0,0,1,240.8,232L240.8,232A7.2,7.2,0,0,1,248,224.8M312,224.8L320,224.8L336,224.8L344,224.8A7.2,7.2,0,0,1,351.2,232L351.2,232A7.2,7.2,0,0,1,344,239.2L336,239.2L320,239.2L312,239.2A7.2,7.2,0,0,1,304.8,232L304.8,232A7.2,7.2,0,0,1,312,224.8M392,224.8L392,224.8A7.2,7.2,0,0,1,399.2,232L399.2,232A7.2,7.2,0,0,1,392,239.2L392,239.2A7.2,7.2,0,0,1,384.8,232L384.8,232A7.2,7.2,0,0,1,392,224.8M424,224.8L424,224.8A7.2,7.2,0,0,1,431.2,232L431.2,232A7.2,7.2,0,0,1,424,239.2L424,239.2A7.2,7.2,0,0,1,416.8,232L416.8,232A7.2,7.2,0,0,1,424,224.8M472,224.8L472,224.8A7.2,7.2,0,0,1,479.2,232L479.2,232A7.2,7.2,0,0,1,472,239.2L472,239.2A7.2,7.2,0,0,1,464.8,232L464.8,232A7.2,7.2,0,0,1,472,224.8ZM8,240.8L8,240.8A7.2,7.2,0,0,1,15.2,248L15.2,248A7.2,7.2,0,0,1,8,255.2L8,255.2A7.2,7.2,0,0,1,0.8,248L0.8,248A7.2,7.2,0,0,1,8,240.8M40,240.8L48,240.8L64,240.8L72,240.8A7.2,7.2,0,0,1,79.2,248L79.2,248A7.2,7.2,0,0,1,72,255.2L64,255.2L48,255.2L40,255.2A7.2,7.2,0,0,1,32.8,248L32.8,248A7.2,7.2,0,0,1,40,240.8M152,240.8L160,240.8L176,240.8L184,240.8A7.2,7.2,0,0,1,191.2,248L191.2,248A7.2,7.2,0,0,1,184,255.2L176,255.2L160,255.2L152,255.2A7.2,7.2,0,0,1,144.8,248L144.8,248A7.2,7.2,0,0,1,152,240.8M216,240.8L216,240.8A7.2,7.2,0,0,1,223.2,248L223.2,248A7.2,7.2,0,0,1,216,255.2L216,255.2A7.2,7.2,0,0,1,208.8,248L208.8,248A7.2,7.2,0,0,1,216,240.8M248,240.8L256,240.8L272,240.8L280,240.8A7.2,7.2,0,0,1,287.2,248L287.2,248A7.2,7.2,0,0,1,280,255.2L272,255.2L256,255.2L248,255.2A7.2,7.2,0,0,1,240.8,248L240.8,248A7.2,7.2,0,0,1,248,240.8M312,240.8L320,240.8L336,240.8L352,240.8L360,240.8A7.2,7.2,0,0,1,367.2,248L367.2,248A7.2,7.2,0,0,1,360,255.2L352,255.2L336,255.2L320,255.2L312,255.2A7.2,7.2,0,0,1,304.8,248L304.8,248A7.2,7.2,0,0,1,312,240.8M392,240.8L400,240.8L416,240.8L432,240.8L440,240.8A7.2,7.2,0,0,1,447.2,248L447.2,248A7.2,7.2,0,0,1,440,255.2L432,255.2L416,255.2L400,255.2L392,255.2A7.2,7.2,0,0,1,384.8,248L384.8,248A7.2,7.2,0,0,1,392,240.8M472,240.8L480,240.8L496,240.8L504,240.8A7.2,7.2,0,0,1,511.2,248L511.2,248A7.2,7.2,0,0,1,504,255.2L496,255.2L480,255.2L472,255.2A7.2,7.2,0,0,1,464.8,248L464.8,248A7.2,7.2,0,0,1,472,240.8ZM8,256.8L16,256.8L32,256.8L48,256.8L56,256.8A7.2,7.2,0,0,1,63.2,264L63.2,264A7.2,7.2,0,0,1,56,271.2L48,271.2L32,271.2L16,271.2L8,271.2A7.2,7.2,0,0,1,0.8,264L0.8,264A7.2,7.2,0,0,1,8,256.8M88,256.8L96,256.8L112,256.8L128,256.8L136,256.8A7.2,7.2,0,0,1,143.2,264L143.2,264A7.2,7.2,0,0,1,136,271.2L128,271.2L112,271.2L96,271.2L88,271.2A7.2,7.2,0,0,1,80.8,264L80.8,264A7.2,7.2,0,0,1,88,256.8M168,256.8L168,256.8A7.2,7.2,0,0,1,175.2,264L175.2,264A7.2,7.2,0,0,1,168,271.2L168,271.2A7.2,7.2,0,0,1,160.8,264L160.8,264A7.2,7.2,0,0,1,168,256.8M200,256.8L208,256.8L216,256.8A7.2,7.2,0,0,1,223.2,264L223.2,264A7.2,7.2,0,0,1,216,271.2L208,271.2L200,271.2A7.2,7.2,0,0,1,192.8,264L192.8,264A7.2,7.2,0,0,1,200,256.8M248,256.8L256,256.8L264,256.8A7.2,7.2,0,0,1,271.2,264L271.2,264A7.2,7.2,0,0,1,264,271.2L256,271.2L248,271.2A7.2,7.2,0,0,1,240.8,264L240.8,264A7.2,7.2,0,0,1,248,256.8M344,256.8L344,256.8A7.2,7.2,0,0,1,351.2,264L351.2,264A7.2,7.2,0,0,1,344,271.2L344,271.2A7.2,7.2,0,0,1,336.8,264L336.8,264A7.2,7.2,0,0,1,344,256.8M392,256.8L400,256.8L416,256.8L424,256.8A7.2,7.2,0,0,1,431.2,264L431.2,264A7.2,7.2,0,0,1,424,271.2L416,271.2L400,271.2L392,271.2A7.2,7.2,0,0,1,384.8,264L384.8,264A7.2,7.2,0,0,1,392,256.8M456,256.8L456,256.8A7.2,7.2,0,0,1,463.2,264L463.2,264A7.2,7.2,0,0,1,456,271.2L456,271.2A7.2,7.2,0,0,1,448.8,264L448.8,264A7.2,7.2,0,0,1,456,256.8M488,256.8L496,256.8L504,256.8A7.2,7.2,0,0,1,511.2,264L511.2,264A7.2,7.2,0,0,1,504,271.2L496,271.2L488,271.2A7.2,7.2,0,0,1,480.8,264L480.8,264A7.2,7.2,0,0,1,488,256.8ZM56,272.8L64,272.8L72,272.8A7.2,7.2,0,0,1,79.2,280L79.2,280A7.2,7.2,0,0,1,72,287.2L64,287.2L56,287.2A7.2,7.2,0,0,1,48.8,280L48.8,280A7.2,7.2,0,0,1,56,272.8M136,272.8L144,272.8L152,272.8A7.2,7.2,0,0,1,159.2,280L159.2,280A7.2,7.2,0,0,1,152,287.2L144,287.2L136,287.2A7.2,7.2,0,0,1,128.8,280L128.8,280A7.2,7.2,0,0,1,136,272.8M216,272.8L224,272.8L232,272.8A7.2,7.2,0,0,1,239.2,280L239.2,280A7.2,7.2,0,0,1,232,287.2L224,287.2L216,287.2A7.2,7.2,0,0,1,208.8,280L208.8,280A7.2,7.2,0,0,1,216,272.8M312,272.8L320,272.8L328,272.8A7.2,7.2,0,0,1,335.2,280L335.2,280A7.2,7.2,0,0,1,328,287.2L320,287.2L312,287.2A7.2,7.2,0,0,1,304.8,280L304.8,280A7.2,7.2,0,0,1,312,272.8M360,272.8L368,272.8L376,272.8A7.2,7.2,0,0,1,383.2,280L383.2,280A7.2,7.2,0,0,1,376,287.2L368,287.2L360,287.2A7.2,7.2,0,0,1,352.8,280L352.8,280A7.2,7.2,0,0,1,360,272.8M408,272.8L416,272.8L432,272.8L448,272.8L456,272.8A7.2,7.2,0,0,1,463.2,280L463.2,280A7.2,7.2,0,0,1,456,287.2L448,287.2L432,287.2L416,287.2L408,287.2A7.2,7.2,0,0,1,400.8,280L400.8,280A7.2,7.2,0,0,1,408,272.8M488,272.8L488,272.8A7.2,7.2,0,0,1,495.2,280L495.2,280A7.2,7.2,0,0,1,488,287.2L488,287.2A7.2,7.2,0,0,1,480.8,280L480.8,280A7.2,7.2,0,0,1,488,272.8M520,272.8L520,272.8A7.2,7.2,0,0,1,527.2,280L527.2,280A7.2,7.2,0,0,1,520,287.2L520,287.2A7.2,7.2,0,0,1,512.8,280L512.8,280A7.2,7.2,0,0,1,520,272.8ZM40,288.8L40,288.8A7.2,7.2,0,0,1,47.2,296L47.2,296A7.2,7.2,0,0,1,40,303.2L40,303.2A7.2,7.2,0,0,1,32.8,296L32.8,296A7.2,7.2,0,0,1,40,288.8M88,288.8L96,288.8L112,288.8L128,288.8L136,288.8A7.2,7.2,0,0,1,143.2,296L143.2,296A7.2,7.2,0,0,1,136,303.2L128,303.2L112,303.2L96,303.2L88,303.2A7.2,7.2,0,0,1,80.8,296L80.8,296A7.2,7.2,0,0,1,88,288.8M248,288.8L256,288.8L264,288.8A7.2,7.2,0,0,1,271.2,296L271.2,296A7.2,7.2,0,0,1,264,303.2L256,303.2L248,303.2A7.2,7.2,0,0,1,240.8,296L240.8,296A7.2,7.2,0,0,1,248,288.8M312,288.8L312,288.8A7.2,7.2,0,0,1,319.2,296L319.2,296A7.2,7.2,0,0,1,312,303.2L312,303.2A7.2,7.2,0,0,1,304.8,296L304.8,296A7.2,7.2,0,0,1,312,288.8M360,288.8L360,288.8A7.2,7.2,0,0,1,367.2,296L367.2,296A7.2,7.2,0,0,1,360,303.2L360,303.2A7.2,7.2,0,0,1,352.8,296L352.8,296A7.2,7.2,0,0,1,360,288.8M408,288.8L416,288.8L424,288.8A7.2,7.2,0,0,1,431.2,296L431.2,296A7.2,7.2,0,0,1,424,303.2L416,303.2L408,303.2A7.2,7.2,0,0,1,400.8,296L400.8,296A7.2,7.2,0,0,1,408,288.8M456,288.8L456,288.8A7.2,7.2,0,0,1,463.2,296L463.2,296A7.2,7.2,0,0,1,456,303.2L456,303.2A7.2,7.2,0,0,1,448.8,296L448.8,296A7.2,7.2,0,0,1,456,288.8M488,288.8L488,288.8A7.2,7.2,0,0,1,495.2,296L495.2,296A7.2,7.2,0,0,1,488,303.2L488,303.2A7.2,7.2,0,0,1,480.8,296L480.8,296A7.2,7.2,0,0,1,488,288.8ZM8,304.8L16,304.8L32,304.8L40,304.8A7.2,7.2,0,0,1,47.2,312L47.2,312A7.2,7.2,0,0,1,40,319.2L32,319.2L16,319.2L8,319.2A7.2,7.2,0,0,1,0.8,312L0.8,312A7.2,7.2,0,0,1,8,304.8M88,304.8L88,304.8A7.2,7.2,0,0,1,95.2,312L95.2,312A7.2,7.2,0,0,1,88,319.2L88,319.2A7.2,7.2,0,0,1,80.8,312L80.8,312A7.2,7.2,0,0,1,88,304.8M120,304.8L120,304.8A7.2,7.2,0,0,1,127.2,312L127.2,312A7.2,7.2,0,0,1,120,319.2L120,319.2A7.2,7.2,0,0,1,112.8,312L112.8,312A7.2,7.2,0,0,1,120,304.8M168,304.8L168,304.8A7.2,7.2,0,0,1,175.2,312L175.2,312A7.2,7.2,0,0,1,168,319.2L168,319.2A7.2,7.2,0,0,1,160.8,312L160.8,312A7.2,7.2,0,0,1,168,304.8M216,304.8L216,304.8A7.2,7.2,0,0,1,223.2,312L223.2,312A7.2,7.2,0,0,1,216,319.2L216,319.2A7.2,7.2,0,0,1,208.8,312L208.8,312A7.2,7.2,0,0,1,216,304.8M248,304.8L248,304.8A7.2,7.2,0,0,1,255.2,312L255.2,312A7.2,7.2,0,0,1,248,319.2L248,319.2A7.2,7.2,0,0,1,240.8,312L240.8,312A7.2,7.2,0,0,1,248,304.8M280,304.8L280,304.8A7.2,7.2,0,0,1,287.2,312L287.2,312A7.2,7.2,0,0,1,280,319.2L280,319.2A7.2,7.2,0,0,1,272.8,312L272.8,312A7.2,7.2,0,0,1,280,304.8ZM24,320.8L24,320.8A7.2,7.2,0,0,1,31.2,328L31.2,328A7.2,7.2,0,0,1,24,335.2L24,335.2A7.2,7.2,0,0,1,16.8,328L16.8,328A7.2,7.2,0,0,1,24,320.8M56,320.8L64,320.8L72,320.8A7.2,7.2,0,0,1,79.2,328L79.2,328A7.2,7.2,0,0,1,72,335.2L64,335.2L56,335.2A7.2,7.2,0,0,1,48.8,328L48.8,328A7.2,7.2,0,0,1,56,320.8M104,320.8L104,320.8A7.2,7.2,0,0,1,111.2,328L111.2,328A7.2,7.2,0,0,1,104,335.2L104,335.2A7.2,7.2,0,0,1,96.8,328L96.8,328A7.2,7.2,0,0,1,104,320.8M136,320.8L144,320.8L152,320.8A7.2,7.2,0,0,1,159.2,328L159.2,328A7.2,7.2,0,0,1,152,335.2L144,335.2L136,335.2A7.2,7.2,0,0,1,128.8,328L128.8,328A7.2,7.2,0,0,1,136,320.8M216,320.8L216,320.8A7.2,7.2,0,0,1,223.2,328L223.2,328A7.2,7.2,0,0,1,216,335.2L216,335.2A7.2,7.2,0,0,1,208.8,328L208.8,328A7.2,7.2,0,0,1,216,320.8M296,320.8L304,320.8L312,320.8A7.2,7.2,0,0,1,319.2,328L319.2,328A7.2,7.2,0,0,1,312,335.2L304,335.2L296,335.2A7.2,7.2,0,0,1,288.8,328L288.8,328A7.2,7.2,0,0,1,296,320.8M344,320.8L344,320.8A7.2,7.2,0,0,1,351.2,328L351.2,328A7.2,7.2,0,0,1,344,335.2L344,335.2A7.2,7.2,0,0,1,336.8,328L336.8,328A7.2,7.2,0,0,1,344,320.8M392,320.8L392,320.8A7.2,7.2,0,0,1,399.2,328L399.2,328A7.2,7.2,0,0,1,392,335.2L392,335.2A7.2,7.2,0,0,1,384.8,328L384.8,328A7.2,7.2,0,0,1,392,320.8M424,320.8L424,320.8A7.2,7.2,0,0,1,431.2,328L431.2,328A7.2,7.2,0,0,1,424,335.2L424,335.2A7.2,7.2,0,0,1,416.8,328L416.8,328A7.2,7.2,0,0,1,424,320.8M472,320.8L480,320.8L496,320.8L504,320.8A7.2,7.2,0,0,1,511.2,328L511.2,328A7.2,7.2,0,0,1,504,335.2L496,335.2L480,335.2L472,335.2A7.2,7.2,0,0,1,464.8,328L464.8,328A7.2,7.2,0,0,1,472,320.8ZM8,336.8L8,336.8A7.2,7.2,0,0,1,15.2,344L15.2,344A7.2,7.2,0,0,1,8,351.2L8,351.2A7.2,7.2,0,0,1,0.8,344L0.8,344A7.2,7.2,0,0,1,8,336.8M200,336.8L200,336.8A7.2,7.2,0,0,1,207.2,344L207.2,344A7.2,7.2,0,0,1,200,351.2L200,351.2A7.2,7.2,0,0,1,192.8,344L192.8,344A7.2,7.2,0,0,1,200,336.8M232,336.8L232,336.8A7.2,7.2,0,0,1,239.2,344L239.2,344A7.2,7.2,0,0,1,232,351.2L232,351.2A7.2,7.2,0,0,1,224.8,344L224.8,344A7.2,7.2,0,0,1,232,336.8M264,336.8L272,336.8L288,336.8L304,336.8L312,336.8A7.2,7.2,0,0,1,319.2,344L319.2,344A7.2,7.2,0,0,1,312,351.2L304,351.2L288,351.2L272,351.2L264,351.2A7.2,7.2,0,0,1,256.8,344L256.8,344A7.2,7.2,0,0,1,264,336.8M392,336.8L392,336.8A7.2,7.2,0,0,1,399.2,344L399.2,344A7.2,7.2,0,0,1,392,351.2L392,351.2A7.2,7.2,0,0,1,384.8,344L384.8,344A7.2,7.2,0,0,1,392,336.8M440,336.8L440,336.8A7.2,7.2,0,0,1,447.2,344L447.2,344A7.2,7.2,0,0,1,440,351.2L440,351.2A7.2,7.2,0,0,1,432.8,344L432.8,344A7.2,7.2,0,0,1,440,336.8M504,336.8L512,336.8L520,336.8A7.2,7.2,0,0,1,527.2,344L527.2,344A7.2,7.2,0,0,1,520,351.2L512,351.2L504,351.2A7.2,7.2,0,0,1,496.8,344L496.8,344A7.2,7.2,0,0,1,504,336.8ZM56,352.8L64,352.8L80,352.8L96,352.8L104,352.8A7.2,7.2,0,0,1,111.2,360L111.2,360A7.2,7.2,0,0,1,104,367.2L96,367.2L80,367.2L64,367.2L56,367.2A7.2,7.2,0,0,1,48.8,360L48.8,360A7.2,7.2,0,0,1,56,352.8M152,352.8L152,352.8A7.2,7.2,0,0,1,159.2,360L159.2,360A7.2,7.2,0,0,1,152,367.2L152,367.2A7.2,7.2,0,0,1,144.8,360L144.8,360A7.2,7.2,0,0,1,152,352.8M232,352.8L232,352.8A7.2,7.2,0,0,1,239.2,360L239.2,360A7.2,7.2,0,0,1,232,367.2L232,367.2A7.2,7.2,0,0,1,224.8,360L224.8,360A7.2,7.2,0,0,1,232,352.8M264,352.8L264,352.8A7.2,7.2,0,0,1,271.2,360L271.2,360A7.2,7.2,0,0,1,264,367.2L264,367.2A7.2,7.2,0,0,1,256.8,360L256.8,360A7.2,7.2,0,0,1,264,352.8M328,352.8L336,352.8L352,352.8L368,352.8L384,352.8L392,352.8A7.2,7.2,0,0,1,399.2,360L399.2,360A7.2,7.2,0,0,1,392,367.2L384,367.2L368,367.2L352,367.2L336,367.2L328,367.2A7.2,7.2,0,0,1,320.8,360L320.8,360A7.2,7.2,0,0,1,328,352.8M424,352.8L424,352.8A7.2,7.2,0,0,1,431.2,360L431.2,360A7.2,7.2,0,0,1,424,367.2L424,367.2A7.2,7.2,0,0,1,416.8,360L416.8,360A7.2,7.2,0,0,1,424,352.8M504,352.8L512,352.8L520,352.8A7.2,7.2,0,0,1,527.2,360L527.2,360A7.2,7.2,0,0,1,520,367.2L512,367.2L504,367.2A7.2,7.2,0,0,1,496.8,360L496.8,360A7.2,7.2,0,0,1,504,352.8ZM24,368.8L24,368.8A7.2,7.2,0,0,1,31.2,376L31.2,376A7.2,7.2,0,0,1,24,383.2L24,383.2A7.2,7.2,0,0,1,16.8,376L16.8,376A7.2,7.2,0,0,1,24,368.8M88,368.8L88,368.8A7.2,7.2,0,0,1,95.2,376L95.2,376A7.2,7.2,0,0,1,88,383.2L88,383.2A7.2,7.2,0,0,1,80.8,376L80.8,376A7.2,7.2,0,0,1,88,368.8M120,368.8L120,368.8A7.2,7.2,0,0,1,127.2,376L127.2,376A7.2,7.2,0,0,1,120,383.2L120,383.2A7.2,7.2,0,0,1,112.8,376L112.8,376A7.2,7.2,0,0,1,120,368.8M152,368.8L160,368.8L176,368.8L192,368.8L200,368.8A7.2,7.2,0,0,1,207.2,376L207.2,376A7.2,7.2,0,0,1,200,383.2L192,383.2L176,383.2L160,383.2L152,383.2A7.2,7.2,0,0,1,144.8,376L144.8,376A7.2,7.2,0,0,1,152,368.8M264,368.8L264,368.8A7.2,7.2,0,0,1,271.2,376L271.2,376A7.2,7.2,0,0,1,264,383.2L264,383.2A7.2,7.2,0,0,1,256.8,376L256.8,376A7.2,7.2,0,0,1,264,368.8M312,368.8L320,368.8L328,368.8A7.2,7.2,0,0,1,335.2,376L335.2,376A7.2,7.2,0,0,1,328,383.2L320,383.2L312,383.2A7.2,7.2,0,0,1,304.8,376L304.8,376A7.2,7.2,0,0,1,312,368.8M408,368.8L408,368.8A7.2,7.2,0,0,1,415.2,376L415.2,376A7.2,7.2,0,0,1,408,383.2L408,383.2A7.2,7.2,0,0,1,400.8,376L400.8,376A7.2,7.2,0,0,1,408,368.8M440,368.8L448,368.8L464,368.8L472,368.8A7.2,7.2,0,0,1,479.2,376L479.2,376A7.2,7.2,0,0,1,472,383.2L464,383.2L448,383.2L440,383.2A7.2,7.2,0,0,1,432.8,376L432.8,376A7.2,7.2,0,0,1,440,368.8ZM8,384.8L8,384.8A7.2,7.2,0,0,1,15.2,392L15.2,392A7.2,7.2,0,0,1,8,399.2L8,399.2A7.2,7.2,0,0,1,0.8,392L0.8,392A7.2,7.2,0,0,1,8,384.8M40,384.8L48,384.8L56,384.8A7.2,7.2,0,0,1,63.2,392L63.2,392A7.2,7.2,0,0,1,56,399.2L48,399.2L40,399.2A7.2,7.2,0,0,1,32.8,392L32.8,392A7.2,7.2,0,0,1,40,384.8M88,384.8L96,384.8L104,384.8A7.2,7.2,0,0,1,111.2,392L111.2,392A7.2,7.2,0,0,1,104,399.2L96,399.2L88,399.2A7.2,7.2,0,0,1,80.8,392L80.8,392A7.2,7.2,0,0,1,88,384.8M136,384.8L144,384.8L160,384.8L168,384.8A7.2,7.2,0,0,1,175.2,392L175.2,392A7.2,7.2,0,0,1,168,399.2L160,399.2L144,399.2L136,399.2A7.2,7.2,0,0,1,128.8,392L128.8,392A7.2,7.2,0,0,1,136,384.8M216,384.8L216,384.8A7.2,7.2,0,0,1,223.2,392L223.2,392A7.2,7.2,0,0,1,216,399.2L216,399.2A7.2,7.2,0,0,1,208.8,392L208.8,392A7.2,7.2,0,0,1,216,384.8M280,384.8L280,384.8A7.2,7.2,0,0,1,287.2,392L287.2,392A7.2,7.2,0,0,1,280,399.2L280,399.2A7.2,7.2,0,0,1,272.8,392L272.8,392A7.2,7.2,0,0,1,280,384.8M360,384.8L360,384.8A7.2,7.2,0,0,1,367.2,392L367.2,392A7.2,7.2,0,0,1,360,399.2L360,399.2A7.2,7.2,0,0,1,352.8,392L352.8,392A7.2,7.2,0,0,1,360,384.8M392,384.8L400,384.8L416,384.8L432,384.8L448,384.8L464,384.8L472,384.8A7.2,7.2,0,0,1,479.2,392L479.2,392A7.2,7.2,0,0,1,472,399.2L464,399.2L448,399.2L432,399.2L416,399.2L400,399.2L392,399.2A7.2,7.2,0,0,1,384.8,392L384.8,392A7.2,7.2,0,0,1,392,384.8M520,384.8L520,384.8A7.2,7.2,0,0,1,527.2,392L527.2,392A7.2,7.2,0,0,1,520,399.2L520,399.2A7.2,7.2,0,0,1,512.8,392L512.8,392A7.2,7.2,0,0,1,520,384.8ZM136,400.8L136,400.8A7.2,7.2,0,0,1,143.2,408L143.2,408A7.2,7.2,0,0,1,136,415.2L136,415.2A7.2,7.2,0,0,1,128.8,408L128.8,408A7.2,7.2,0,0,1,136,400.8M168,400.8L176,400.8L184,400.8A7.2,7.2,0,0,1,191.2,408L191.2,408A7.2,7.2,0,0,1,184,415.2L176,415.2L168,415.2A7.2,7.2,0,0,1,160.8,408L160.8,408A7.2,7.2,0,0,1,168,400.8M232,400.8L240,400.8L256,400.8L272,400.8L280,400.8A7.2,7.2,0,0,1,287.2,408L287.2,408A7.2,7.2,0,0,1,280,415.2L272,415.2L256,415.2L240,415.2L232,415.2A7.2,7.2,0,0,1,224.8,408L224.8,408A7.2,7.2,0,0,1,232,400.8M328,400.8L336,400.8L352,400.8L360,400.8A7.2,7.2,0,0,1,367.2,408L367.2,408A7.2,7.2,0,0,1,360,415.2L352,415.2L336,415.2L328,415.2A7.2,7.2,0,0,1,320.8,408L320.8,408A7.2,7.2,0,0,1,328,400.8M392,400.8L392,400.8A7.2,7.2,0,0,1,399.2,408L399.2,408A7.2,7.2,0,0,1,392,415.2L392,415.2A7.2,7.2,0,0,1,384.8,408L384.8,408A7.2,7.2,0,0,1,392,400.8M456,400.8L456,400.8A7.2,7.2,0,0,1,463.2,408L463.2,408A7.2,7.2,0,0,1,456,415.2L456,415.2A7.2,7.2,0,0,1,448.8,408L448.8,408A7.2,7.2,0,0,1,456,400.8M488,400.8L488,400.8A7.2,7.2,0,0,1,495.2,408L495.2,408A7.2,7.2,0,0,1,488,415.2L488,415.2A7.2,7.2,0,0,1,480.8,408L480.8,408A7.2,7.2,0,0,1,488,400.8ZM136,416.8L144,416.8L160,416.8L176,416.8L184,416.8A7.2,7.2,0,0,1,191.2,424L191.2,424A7.2,7.2,0,0,1,184,431.2L176,431.2L160,431.2L144,431.2L136,431.2A7.2,7.2,0,0,1,128.8,424L128.8,424A7.2,7.2,0,0,1,136,416.8M216,416.8L224,416.8L240,416.8L248,416.8A7.2,7.2,0,0,1,255.2,424L255.2,424A7.2,7.2,0,0,1,248,431.2L240,431.2L224,431.2L216,431.2A7.2,7.2,0,0,1,208.8,424L208.8,424A7.2,7.2,0,0,1,216,416.8M280,416.8L288,416.8L296,416.8A7.2,7.2,0,0,1,303.2,424L303.2,424A7.2,7.2,0,0,1,296,431.2L288,431.2L280,431.2A7.2,7.2,0,0,1,272.8,424L272.8,424A7.2,7.2,0,0,1,280,416.8M328,416.8L336,416.8L344,416.8A7.2,7.2,0,0,1,351.2,424L351.2,424A7.2,7.2,0,0,1,344,431.2L336,431.2L328,431.2A7.2,7.2,0,0,1,320.8,424L320.8,424A7.2,7.2,0,0,1,328,416.8M376,416.8L384,416.8L392,416.8A7.2,7.2,0,0,1,399.2,424L399.2,424A7.2,7.2,0,0,1,392,431.2L384,431.2L376,431.2A7.2,7.2,0,0,1,368.8,424L368.8,424A7.2,7.2,0,0,1,376,416.8M424,416.8L424,416.8A7.2,7.2,0,0,1,431.2,424L431.2,424A7.2,7.2,0,0,1,424,431.2L424,431.2A7.2,7.2,0,0,1,416.8,424L416.8,424A7.2,7.2,0,0,1,424,416.8M456,416.8L464,416.8L472,416.8A7.2,7.2,0,0,1,479.2,424L479.2,424A7.2,7.2,0,0,1,472,431.2L464,431.2L456,431.2A7.2,7.2,0,0,1,448.8,424L448.8,424A7.2,7.2,0,0,1,456,416.8ZM200,432.8L208,432.8L216,432.8A7.2,7.2,0,0,1,223.2,440L223.2,440A7.2,7.2,0,0,1,216,447.2L208,447.2L200,447.2A7.2,7.2,0,0,1,192.8,440L192.8,440A7.2,7.2,0,0,1,200,432.8M280,432.8L280,432.8A7.2,7.2,0,0,1,287.2,440L287.2,440A7.2,7.2,0,0,1,280,447.2L280,447.2A7.2,7.2,0,0,1,272.8,440L272.8,440A7.2,7.2,0,0,1,280,432.8M376,432.8L384,432.8L392,432.8A7.2,7.2,0,0,1,399.2,440L399.2,440A7.2,7.2,0,0,1,392,447.2L384,447.2L376,447.2A7.2,7.2,0,0,1,368.8,440L368.8,440A7.2,7.2,0,0,1,376,432.8M456,432.8L464,432.8L480,432.8L496,432.8L512,432.8L520,432.8A7.2,7.2,0,0,1,527.2,440L527.2,440A7.2,7.2,0,0,1,520,447.2L512,447.2L496,447.2L480,447.2L464,447.2L456,447.2A7.2,7.2,0,0,1,448.8,440L448.8,440A7.2,7.2,0,0,1,456,432.8ZM168,448.8L168,448.8A7.2,7.2,0,0,1,175.2,456L175.2,456A7.2,7.2,0,0,1,168,463.2L168,463.2A7.2,7.2,0,0,1,160.8,456L160.8,456A7.2,7.2,0,0,1,168,448.8M248,448.8L248,448.8A7.2,7.2,0,0,1,255.2,456L255.2,456A7.2,7.2,0,0,1,248,463.2L248,463.2A7.2,7.2,0,0,1,240.8,456L240.8,456A7.2,7.2,0,0,1,248,448.8M296,448.8L304,448.8L312,448.8A7.2,7.2,0,0,1,319.2,456L319.2,456A7.2,7.2,0,0,1,312,463.2L304,463.2L296,463.2A7.2,7.2,0,0,1,288.8,456L288.8,456A7.2,7.2,0,0,1,296,448.8M360,448.8L368,448.8L384,448.8L400,448.8L416,448.8L432,448.8L448,448.8L464,448.8L480,448.8L496,448.8L504,448.8A7.2,7.2,0,0,1,511.2,456L511.2,456A7.2,7.2,0,0,1,504,463.2L496,463.2L480,463.2L464,463.2L448,463.2L432,463.2L416,463.2L400,463.2L384,463.2L368,463.2L360,463.2A7.2,7.2,0,0,1,352.8,456L352.8,456A7.2,7.2,0,0,1,360,448.8ZM136,464.8L144,464.8L152,464.8A7.2,7.2,0,0,1,159.2,472L159.2,472A7.2,7.2,0,0,1,152,479.2L144,479.2L136,479.2A7.2,7.2,0,0,1,128.8,472L128.8,472A7.2,7.2,0,0,1,136,464.8M248,464.8L256,464.8L272,464.8L288,464.8L296,464.8A7.2,7.2,0,0,1,303.2,472L303.2,472A7.2,7.2,0,0,1,296,479.2L288,479.2L272,479.2L256,479.2L248,479.2A7.2,7.2,0,0,1,240.8,472L240.8,472A7.2,7.2,0,0,1,248,464.8M328,464.8L336,464.8L352,464.8L368,464.8L376,464.8A7.2,7.2,0,0,1,383.2,472L383.2,472A7.2,7.2,0,0,1,376,479.2L368,479.2L352,479.2L336,479.2L328,479.2A7.2,7.2,0,0,1,320.8,472L320.8,472A7.2,7.2,0,0,1,328,464.8M440,464.8L440,464.8A7.2,7.2,0,0,1,447.2,472L447.2,472A7.2,7.2,0,0,1,440,479.2L440,479.2A7.2,7.2,0,0,1,432.8,472L432.8,472A7.2,7.2,0,0,1,440,464.8ZM136,480.8L144,480.8L160,480.8L176,480.8L192,480.8L208,480.8L216,480.8A7.2,7.2,0,0,1,223.2,488L223.2,488A7.2,7.2,0,0,1,216,495.2L208,495.2L192,495.2L176,495.2L160,495.2L144,495.2L136,495.2A7.2,7.2,0,0,1,128.8,488L128.8,488A7.2,7.2,0,0,1,136,480.8M248,480.8L256,480.8L264,480.8A7.2,7.2,0,0,1,271.2,488L271.2,488A7.2,7.2,0,0,1,264,495.2L256,495.2L248,495.2A7.2,7.2,0,0,1,240.8,488L240.8,488A7.2,7.2,0,0,1,248,480.8M296,480.8L304,480.8L312,480.8A7.2,7.2,0,0,1,319.2,488L319.2,488A7.2,7.2,0,0,1,312,495.2L304,495.2L296,495.2A7.2,7.2,0,0,1,288.8,488L288.8,488A7.2,7.2,0,0,1,296,480.8M376,480.8L376,480.8A7.2,7.2,0,0,1,383.2,488L383.2,488A7.2,7.2,0,0,1,376,495.2L376,495.2A7.2,7.2,0,0,1,368.8,488L368.8,488A7.2,7.2,0,0,1,376,480.8M408,480.8L416,480.8L424,480.8A7.2,7.2,0,0,1,431.2,488L431.2,488A7.2,7.2,0,0,1,424,495.2L416,495.2L408,495.2A7.2,7.2,0,0,1,400.8,488L400.8,488A7.2,7.2,0,0,1,408,480.8ZM184,496.8L184,496.8A7.2,7.2,0,0,1,191.2,504L191.2,504A7.2,7.2,0,0,1,184,511.2L184,511.2A7.2,7.2,0,0,1,176.8,504L176.8,504A7.2,7.2,0,0,1,184,496.8M232,496.8L232,496.8A7.2,7.2,0,0,1,239.2,504L239.2,504A7.2,7.2,0,0,1,232,511.2L232,511.2A7.2,7.2,0,0,1,224.8,504L224.8,504A7.2,7.2,0,0,1,232,496.8M264,496.8L272,496.8L288,496.8L304,496.8L312,496.8A7.2,7.2,0,0,1,319.2,504L319.2,504A7.2,7.2,0,0,1,312,511.2L304,511.2L288,511.2L272,511.2L264,511.2A7.2,7.2,0,0,1,256.8,504L256.8,504A7.2,7.2,0,0,1,264,496.8M344,496.8L344,496.8A7.2,7.2,0,0,1,351.2,504L351.2,504A7.2,7.2,0,0,1,344,511.2L344,511.2A7.2,7.2,0,0,1,336.8,504L336.8,504A7.2,7.2,0,0,1,344,496.8M392,496.8L400,496.8L408,496.8A7.2,7.2,0,0,1,415.2,504L415.2,504A7.2,7.2,0,0,1,408,511.2L400,511.2L392,511.2A7.2,7.2,0,0,1,384.8,504L384.8,504A7.2,7.2,0,0,1,392,496.8ZM168,512.8L168,512.8A7.2,7.2,0,0,1,175.2,520L175.2,520A7.2,7.2,0,0,1,168,527.2L168,527.2A7.2,7.2,0,0,1,160.8,520L160.8,520A7.2,7.2,0,0,1,168,512.8M216,512.8L216,512.8A7.2,7.2,0,0,1,223.2,520L223.2,520A7.2,7.2,0,0,1,216,527.2L216,527.2A7.2,7.2,0,0,1,208.8,520L208.8,520A7.2,7.2,0,0,1,216,512.8M312,512.8L320,512.8L328,512.8A7.2,7.2,0,0,1,335.2,520L335.2,520A7.2,7.2,0,0,1,328,527.2L320,527.2L312,527.2A7.2,7.2,0,0,1,304.8,520L304.8,520A7.2,7.2,0,0,1,312,512.8M376,512.8L376,512.8A7.2,7.2,0,0,1,383.2,520L383.2,520A7.2,7.2,0,0,1,376,527.2L376,527.2A7.2,7.2,0,0,1,368.8,520L368.8,520A7.2,7.2,0,0,1,376,512.8M408,512.8L408,512.8A7.2,7.2,0,0,1,415.2,520L415.2,520A7.2,7.2,0,0,1,408,527.2L408,527.2A7.2,7.2,0,0,1,400.8,520L400.8,520A7.2,7.2,0,0,1,408,512.8M440,512.8L440,512.8A7.2,7.2,0,0,1,447.2,520L447.2,520A7.2,7.2,0,0,1,440,527.2L440,527.2A7.2,7.2,0,0,1,432.8,520L432.8,520A7.2,7.2,0,0,1,440,512.8Z" />
<path d="M4.7253,9.0689C6.179,9.0436 6.4149,7.6154 6.4149,6.769C6.4149,5.5163 5.775,5.0788 5,5C4.0425,5.4242 3.3403,6.146 3.2555,7.2606C3.2416,7.4443 3.237,7.6894 3.2516,7.9757C3.2906,8.7383 3.8493,9.0843 4.7253,9.0689 M 12.2447 10.8068 C 11.2047 10.8068 10.1118 10.1673 10.06 8.9707 C 8.8774 10.2223 7.0538 10.8186 4.7253 10.8186 C 2.3769 10.8186 1.396 9.2175 1.396 7.9703 C 1.4554 3.8126 1.3605 2.255 1.341 1.9353 C 1.3393 1.907 1.3381 1.8884 1.3377 1.8785 L 1.3373 1.8677 C 1.3313 1.7096 1.3224 1.4733 1.172 1.4572 C 1.0786 1.4472 1.0183 1.4757 0.911 1.6094 C 0.75 1.8233 0.425 1.908 0.2273 1.7937 C -0.0116 1.6555 -0.0562 1.3505 0.0647 1.0697 C 0.4002 0.3212 0.9379 -0.01 1.6625 0.0003 C 2.9146 0.0182 3.2738 0.8359 3.2738 1.8575 C 3.2738 1.8575 3.246 3.3292 3.246 4.1579 C 3.689 3.7969 4.3397 3.4098 5.4266 3.4098 C 7.6899 3.4098 9.1267 6.2118 7.6503 8.8925 C 9.5428 8.0197 9.9378 6.5164 10.0112 5.0238 L 10.0043 4.5203 C 10.0043 3.9552 10.3688 3.4767 10.9361 3.4767 C 11.5034 3.4767 11.8802 3.9877 11.86 4.5271 C 11.7919 6.3438 11.7644 7.5395 11.7644 8.1722 C 11.7644 8.5384 11.9642 9.0996 12.5555 9.0996 C 13.7134 9.0996 14.094 8.1922 14.1838 6.0595 C 14.1885 5.2642 14.1927 4.5997 14.1927 4.5997 C 13.6679 4.5997 13.4094 4.324 13.4094 3.9795 C 13.4094 3.635 13.683 3.3163 14.1321 3.3163 C 14.1321 3.3163 14.133 2.1182 14.133 1.622 C 14.133 1.0569 14.5715 0.5883 15.1388 0.5883 C 15.7062 0.5883 16.1567 1.0569 16.1567 1.622 C 16.1567 1.8095 16.1495 2.028 16.1416 2.2695 C 16.1315 2.5784 16.1201 2.9246 16.121 3.2909 L 16.2032 3.2905 H 16.2032 C 16.357 3.29 16.7051 3.2888 17.1681 3.2834 C 17.7198 3.2769 17.9445 3.5851 17.9445 3.9709 C 17.9445 4.3567 17.6475 4.626 17.2602 4.6276 C 16.9012 4.6291 16.1083 4.6247 16.1083 4.6247 C 16.0723 5.7674 16.0382 7.1451 16.0382 8.2475 C 16.0382 8.6451 16.3126 9.0995 16.9767 9.0995 C 18.3163 9.0995 18.8167 7.9092 18.9173 5.6498 C 18.9095 4.0766 18.8907 3.1653 18.8765 2.4785 V 2.4785 C 18.8666 1.9969 18.859 1.6258 18.859 1.2143 C 18.859 0.6493 19.3295 0.1442 19.8967 0.1442 C 20.4641 0.1442 20.8826 0.5977 20.8826 1.1627 C 20.8826 1.598 20.8651 2.1069 20.8413 2.8009 V 2.8009 V 2.801 C 20.801 3.9747 20.7425 5.6778 20.7195 8.4504 C 20.7165 8.8195 20.8967 9.0795 21.3748 9.0795 C 22.6524 9.0795 23.0066 7.6955 23.119 5.7625 C 23.1197 5.6695 23.1205 5.5785 23.1214 5.4891 L 23.1214 5.4887 C 23.1231 5.3054 23.1247 5.1289 23.1247 4.9561 C 23.1247 4.391 23.5011 3.9337 24.0686 3.9337 C 24.6359 3.9337 24.9694 4.4022 24.9694 4.9673 C 24.9694 5.3698 24.9562 5.7464 24.9427 6.1348 C 24.9307 6.4777 24.9184 6.8299 24.9146 7.2176 C 24.9047 8.2151 25.2455 9.0938 26.0756 9.0914 C 26.8726 9.0891 27.7479 8.7536 27.7691 7.045 C 27.7751 6.5701 27.7683 6.2053 27.7615 5.8371 V 5.837 V 5.8369 V 5.8368 C 27.7564 5.5642 27.7513 5.2897 27.7513 4.9673 C 27.7513 4.4022 28.1451 3.9337 28.7125 3.9337 C 29.2795 3.9337 29.6737 4.4022 29.6737 4.9673 C 29.6737 5.3051 29.6614 5.6415 29.6477 6.0145 V 6.0145 V 6.0146 V 6.0146 C 29.6307 6.4783 29.6117 6.9984 29.6117 7.6477 C 29.6117 7.6477 29.5769 10.0141 29.66 10.5378 C 29.9203 10.4512 30.2958 10.1968 30.6935 9.5802 C 30.9337 9.208 31.3928 9.1282 31.6758 9.293 C 32.0653 9.52 32.0514 9.9635 31.9058 10.2875 C 31.5298 11.1239 31.0409 11.6358 29.8047 12.0595 C 29.8086 13.4782 29.7098 15.5713 27.0868 15.9496 C 24.8405 16.2735 23.8244 14.9708 23.8211 13.8623 C 23.8157 12.112 25.5649 11.6022 28.0897 10.9665 L 28.0087 10.099 C 28.0087 10.099 27.4464 10.8364 26.0215 10.8008 C 24.9223 10.7733 24.1663 10.2543 23.7077 9.5213 C 23.1787 10.3901 22.3495 10.8105 21.1004 10.8105 C 20.2775 10.8105 19.4934 10.3758 19.1051 9.7457 C 18.5325 10.4308 17.7339 10.8015 16.6607 10.8015 C 15.7256 10.8015 15.0346 10.4786 14.6209 9.9746 C 14.087 10.5712 13.318 10.8068 12.2447 10.8068 Z M 28.2548 12.363 C 26.9786 12.6385 25.3798 13.0407 25.3983 13.8266 C 25.4158 14.5636 26.1767 14.6977 26.8111 14.5666 C 28.1286 14.2943 28.2816 13.5015 28.2548 12.363 Z M 11.9704 1.6249 C 11.9704 1.0544 11.5073 0.5932 10.9347 0.5932 C 10.3619 0.5932 9.8989 1.0544 9.8989 1.6249 C 9.8989 2.1953 10.3619 2.6566 10.9347 2.6566 C 11.5073 2.6566 11.9704 2.1953 11.9704 1.6249 Z" fill='#000000' transform='translate(456.000000, 492.000000) scale(2.250000, 2.250000)' />
</g>
<g id='corners-outer-1' transform="translate(0, 0) scale(5.60, 5.60) " style='fill:#000000' >
<path d="M 17.14 0 H 2 C 0.9 0 0 0.9 0 2 V 18 C 0 19.1 0.9 20 2 20 H 18 C 19.1 20 20 19.1 20 18 V 2 C 20 0.9 19.1 0 18 0 H 17.14 Z M 17.14 5.71 V 15.14 C 17.14 16.25 16.25 17.14 15.14 17.14 H 4.86 C 3.75 17.14 2.86 16.25 2.86 15.14 V 4.86 C 2.86 3.75 3.75 2.86 4.86 2.86 H 15.14 C 16.25 2.86 17.14 3.75 17.14 4.86 V 5.71 Z" />
</g>
<g id='corners-inner-1' transform="translate(32, 32) scale(5.60, 5.60) " style='fill:#000000' >
<path d="M 5.64 0 H 1 C 0.45 0 0 0.45 0 1 V 7.46 C 0 8.01 0.45 8.46 1 8.46 H 7.46 C 8.01 8.46 8.46 8.01 8.46 7.46 V 1 C 8.46 0.45 8.01 0 7.46 0 H 5.64 Z" />
</g>
<g id='corners-outer-2' transform="translate(416, 0) scale(5.60, 5.60) " style='fill:#000000' >
<path d="M 17.14 0 H 2 C 0.9 0 0 0.9 0 2 V 18 C 0 19.1 0.9 20 2 20 H 18 C 19.1 20 20 19.1 20 18 V 2 C 20 0.9 19.1 0 18 0 H 17.14 Z M 17.14 5.71 V 15.14 C 17.14 16.25 16.25 17.14 15.14 17.14 H 4.86 C 3.75 17.14 2.86 16.25 2.86 15.14 V 4.86 C 2.86 3.75 3.75 2.86 4.86 2.86 H 15.14 C 16.25 2.86 17.14 3.75 17.14 4.86 V 5.71 Z" />
</g>
<g id='corners-inner-2' transform="translate(448, 32) scale(5.60, 5.60) " style='fill:#000000' >
<path d="M 5.64 0 H 1 C 0.45 0 0 0.45 0 1 V 7.46 C 0 8.01 0.45 8.46 1 8.46 H 7.46 C 8.01 8.46 8.46 8.01 8.46 7.46 V 1 C 8.46 0.45 8.01 0 7.46 0 H 5.64 Z" />
</g>
<g id='corners-outer-3' transform="translate(0, 416) scale(5.60, 5.60) " style='fill:#000000' >
<path d="M 17.14 0 H 2 C 0.9 0 0 0.9 0 2 V 18 C 0 19.1 0.9 20 2 20 H 18 C 19.1 20 20 19.1 20 18 V 2 C 20 0.9 19.1 0 18 0 H 17.14 Z M 17.14 5.71 V 15.14 C 17.14 16.25 16.25 17.14 15.14 17.14 H 4.86 C 3.75 17.14 2.86 16.25 2.86 15.14 V 4.86 C 2.86 3.75 3.75 2.86 4.86 2.86 H 15.14 C 16.25 2.86 17.14 3.75 17.14 4.86 V 5.71 Z" />
</g>
<g id='corners-inner-3' transform="translate(32, 448) scale(5.60, 5.60) " style='fill:#000000' >
<path d="M 5.64 0 H 1 C 0.45 0 0 0.45 0 1 V 7.46 C 0 8.01 0.45 8.46 1 8.46 H 7.46 C 8.01 8.46 8.46 8.01 8.46 7.46 V 1 C 8.46 0.45 8.01 0 7.46 0 H 5.64 Z" />
</g>
</svg>
<g id="frame-sections">
				<path fill="#000000" d="M222,10a8,8,0,0,1,8,8V222a8,8,0,0,1-8,8H18a8,8,0,0,1-8-8V18a8,8,0,0,1,8-8H222m0-10H18A18,18,0,0,0,0,18V222a18,18,0,0,0,18,18H222a18,18,0,0,0,18-18V18A18,18,0,0,0,222,0Z"/>
			</g>
			</svg>